# xmcd CD database file
#
# Track frame offsets:
#	150
#	12289
#	23288
#	35966
#	47521
#	59940
#	74627
#	90861
#	103735
#	112704
#	123835
#	134179
#	145500
#	156908
#	168389
#	178805
#	192351
#	206215
#	217552
#	232666
#
# Disc length: 3265 seconds
#
# Revision: 3
# Processed by: cddbd v1.5.2PL0 Copyright (c) Steve Scherf et al.
# Submitted via: CDex 1.51
#
DISCID=140cbf14
DTITLE=B.B. King - The Early "Blues Boy" Years
DYEAR=2004
DGENRE=Jazz
TTITLE0=B.B. King - Miss Martha King
TTITLE1=When You Baby Packs Up and Goes
TTITLE2=Got the Blues
TTITLE3=Take A Swing With Me
TTITLE4=Mistreated Woman
TTITLE5=B.B. Boogie
TTITLE6=The Other Night Blues
TTITLE7=Walkin' and Cryin'
TTITLE8=My Baby is Gone
TTITLE9=B.B. Blues
TTITLE10=Fine Looking Woman
TTITLE11=She's Dynamite
TTITLE12=She's A Mean Woman
TTITLE13=Hard Working Woman
TTITLE14=That Ain't the Way to Do It
TTITLE15=Three O'Clock Blues
TTITLE16=She Don't Move Me No More
TTITLE17=Shake it Up and Go
TTITLE18=My Own Fault Darlin'
TTITLE19=I Gotta Find my Baby
EXTD=YEAR: 2004
EXTT0=
EXTT1=
EXTT2=
EXTT3=
EXTT4=
EXTT5=
EXTT6=
EXTT7=
EXTT8=
EXTT9=
EXTT10=
EXTT11=
EXTT12=
EXTT13=
EXTT14=
EXTT15=
EXTT16=
EXTT17=
EXTT18=
EXTT19=
PLAYORDER=
